HIERARCHY
ROOT Hips
{
	OFFSET 0.00000 0.00000 0.00000
	CHANNELS 6 Xposition Yposition Zposition Yrotation Zrotation Xrotation 
	JOINT Lumbar
	{
		OFFSET 0 0 0
		CHANNELS 3 Zrotation Xrotation Yrotation
		JOINT Neck
		{
			OFFSET 0.00 0.2701 0.00
			CHANNELS 3 Zrotation Xrotation Yrotation
			End Site
			{
				OFFSET 0.00 0.1379 0.00
			}
		}
		JOINT RightShoulder
		{
			OFFSET 0.0119 0.2289 0.1181
			CHANNELS 3 Zrotation Xrotation Yrotation
			JOINT RightElbow
			{
				OFFSET 0.00 -0.1475 0.00
				CHANNELS 2 Zrotation Yrotation
				JOINT RightWrist
				{
					OFFSET 0.00 -0.1605 0.00
					CHANNELS 2 Zrotation Xrotation
					End Site
					{
						OFFSET 0.0040 -0.1068 0.0006
					}
				}
			}
		}
		JOINT LeftShoulder
		{
			OFFSET 0.0119 0.2289 -0.1181
			CHANNELS 3 Zrotation Xrotation Yrotation
			JOINT LeftElbow
			{
				OFFSET 0.00 -0.1475 0.00
				CHANNELS 2 Zrotation Yrotation
				JOINT LeftWrist
				{
					OFFSET 0.00 -0.1605 0.00
					CHANNELS 2 Zrotation Xrotation
					End Site
					{
						OFFSET 0.0040 -0.1068 -0.0006
					}
				}
			}
		}
	}
	JOINT RightHip
	{
		OFFSET 0.0316 -0.0424 0.0458
		CHANNELS 3 Zrotation Xrotation Yrotation
		JOINT RightKnee
		{
			OFFSET 0.00 -0.2438 0.00
			CHANNELS 1 Zrotation
			JOINT RightAnkle
			{
				OFFSET 0.00 -0.2449 0.00
				CHANNELS 3 Zrotation Xrotation Yrotation
				End Site
				{
					OFFSET 0.1237 -0.0542 0.0051
				}
			}
		}
	}
	JOINT LeftHip
	{
		OFFSET 0.0316 -0.0424 -0.0458
		CHANNELS 3 Zrotation Xrotation Yrotation
		JOINT LeftKnee
		{
			OFFSET 0.00 -0.2438 0.00
			CHANNELS 1 Zrotation
			JOINT LeftAnkle
			{
				OFFSET 0.00 -0.2449 0.00
				CHANNELS 3 Zrotation Xrotation Yrotation
				End Site
				{
					OFFSET 0.1237 -0.0542 -0.0051
				}
			}
		}
	}
}
MOTION
Frames: 23
Frame Time: 0.02
0.27229 0.57958 0.06916 162.1274 0 -1.52074 -4.42277 3.72913 -9.12285 -28.77581 16.10375 6.95054 -13.90756 -36.08112 -16.79119 123.81473 79.82717 4.73065 -4.56651 -9.63916 -0.56751 -1.60805 116.3007 -79.08546 -13.73099 3.16356 1.33321 8.45457 7.12454 -21.067 5.6484 -6.29593 -8.59396 16.91685 9.42796 -1.12577 -15.01782 -0.16503 3.83672 5.84889
0.26684 0.5794 0.07104 162.35288 0 -1.27767 -4.40613 3.50881 -9.25559 -28.54611 16.1693 7.13003 -14.15157 -34.60751 -18.95976 123.73612 80.39697 4.28461 -4.00812 -10.60042 -1.58081 0.59901 116.29023 -78.70402 -15.11907 3.10615 1.17068 7.97172 7.04794 -21.68069 6.05112 -6.44841 -8.77693 16.6369 8.7384 -1.92754 -14.70512 -0.84795 3.77524 6.13753
0.26115 0.57924 0.07336 162.69941 0 -0.98101 -4.41997 3.28991 -9.60291 -27.61166 16.30307 7.16059 -14.83356 -33.39683 -21.50144 123.67913 81.03142 3.36421 -2.94579 -12.13672 -2.33738 3.55811 116.46242 -77.75386 -17.26657 2.96373 1.06832 7.39838 6.85687 -22.43682 6.47749 -6.5896 -8.96546 16.5364 7.85541 -2.85911 -15.33695 -1.76659 3.73014 6.7338
0.25553 0.5791 0.07551 162.97757 0 -0.71812 -4.40722 3.08461 -9.82833 -27.03442 16.38445 7.26199 -15.25107 -32.0891 -23.8898 123.56201 81.39289 2.61778 -2.10776 -13.29887 -3.18274 6.23442 116.46404 -76.9702 -19.03958 2.84932 0.92598 6.87072 6.73517 -23.10533 6.87346 -6.72733 -9.15278 16.3466 7.07739 -3.67557 -15.52779 -2.54809 3.67636 7.151
0.25007 0.57884 0.07755 163.3138 0 -0.41544 -4.44274 2.81769 -10.14946 -26.31995 16.55055 7.35437 -15.91821 -30.6732 -26.22618 123.65706 82.75112 2.0517 -1.28707 -14.89778 -4.14555 8.68699 116.83095 -76.54093 -20.92949 2.77439 0.8362 6.32363 6.54124 -23.87186 7.35358 -6.90159 -9.33805 16.18842 6.22658 -4.72552 -15.77717 -3.45793 3.62567 7.72258
0.24422 0.57882 0.07993 163.55553 0 -0.18158 -4.38702 2.67912 -10.32384 -25.72016 16.55846 7.4291 -16.17558 -29.5502 -28.74696 123.31494 82.08204 0.99733 -0.31634 -15.7369 -4.80126 11.76128 116.48006 -75.25403 -22.7654 2.59983 0.65425 5.79356 6.46968 -24.47191 7.66459 -6.99737 -9.52499 16.00574 5.47966 -5.32421 -16.12416 -4.15549 3.57374 8.05358
0.23735 0.57948 0.08311 163.52731 0 -0.16747 -4.07335 2.90565 -10.05557 -25.56481 16.11463 7.48434 -15.24894 -29.17217 -31.75884 121.76866 75.53766 -1.31049 1.00457 -14.36453 -4.69359 16.52783 114.12979 -71.71223 -24.18229 2.16257 0.17055 5.35772 6.77003 -24.5245 7.49015 -6.87393 -9.74689 15.73287 5.09249 -4.6081 -16.52709 -4.21289 3.50853 7.60053
0.2301 0.58038 0.08664 163.39617 0 -0.22154 -3.66786 3.25942 -9.63138 -25.55236 15.51052 7.5276 -13.89246 -29.08158 -34.92674 119.78234 67.00282 -4.08907 2.44846 -12.21223 -4.28368 21.86018 111.04904 -67.34092 -25.53078 1.63067 -0.40156 4.93783 7.19617 -24.41452 7.14668 -6.67254 -9.96422 15.42605 4.8122 -3.43985 -16.99183 -4.04756 3.44281 6.9036
0.22301 0.58116 0.09003 163.29846 0 -0.23381 -3.30357 3.54831 -9.26896 -25.50307 14.97837 7.58036 -12.69708 -28.8611 -37.97592 117.98942 59.54898 -6.64088 3.79761 -10.40037 -3.99592 26.83093 108.28266 -63.36473 -26.97013 1.14769 -0.91303 4.49454 7.5609 -24.41158 6.88867 -6.51052 -10.16283 15.1206 4.46669 -2.5034 -17.41507 -3.98173 3.38141 6.34914
0.21593 0.58198 0.09334 163.26062 0 -0.29009 -2.94029 3.86775 -8.9491 -25.31908 14.44884 7.61092 -11.647 -28.64677 -41.24688 116.21628 51.34352 -9.26864 5.32821 -8.65166 -3.75623 32.28032 105.58707 -59.27208 -28.198 0.63478 -1.51149 4.11616 7.94013 -24.26994 6.59528 -6.33252 -10.44967 14.87881 4.18477 -1.46214 -17.92591 -3.93181 3.30337 5.67369
0.20875 0.58276 0.09691 163.07294 0 -0.27128 -2.55547 4.15282 -8.50474 -25.44851 13.87917 7.68676 -10.20414 -28.48408 -44.07964 114.30811 44.24126 -11.83709 6.50366 -6.59804 -3.35695 36.84327 102.58045 -55.25696 -29.82217 0.16526 -1.9471 3.60766 8.31982 -24.38145 6.33481 -6.1681 -10.5513 14.49641 3.79817 -0.52787 -18.25926 -3.79226 3.25956 5.18586
0.20132 0.5834 0.10109 162.48877 0 -0.03132 -2.11074 4.3196 -7.72064 -26.49758 13.20165 7.89112 -7.6323 -28.39713 -45.73114 112.04199 40.57632 -14.18058 6.66504 -3.72858 -2.5141 38.93289 98.7915 -51.44747 -32.70974 -0.18208 -1.93969 2.73591 8.67603 -25.19217 6.20746 -6.07202 -10.1455 13.71338 3.09889 -0.01867 -18.06038 -3.46301 3.3113 5.29602
0.19381 0.58398 0.10552 161.75848 0 0.2868 -1.652 4.44558 -6.82231 -27.8434 12.49599 8.14192 -4.70697 -28.3504 -46.92008 109.6732 38.10732 -16.43431 6.46321 -0.60783 -1.536 40.08433 94.73554 -47.78278 -35.96715 -0.47882 -1.75938 1.73354 9.02756 -26.27096 6.11758 -5.99034 -9.55338 12.79333 2.29132 0.37118 -17.68118 -3.0495 3.39724 5.59813
0.18637 0.58455 0.10984 161.09937 0 0.57082 -1.21407 4.58565 -5.99709 -28.99912 11.82629 8.37201 -2.03803 -28.2816 -48.2772 107.41106 35.15424 -18.69306 6.42684 2.29346 -0.67241 41.58953 90.86465 -44.19885 -38.9503 -0.78386 -1.64127 0.79092 9.37819 -27.25098 6.01139 -5.89422 -9.04407 11.94823 1.53237 0.82909 -17.39725 -2.67111 3.46685 5.79747
0.17877 0.58526 0.11417 160.4156 0 0.84665 -0.71046 4.75054 -5.07552 -30.39494 11.05204 8.60057 1.05451 -28.23865 -49.82466 104.87692 31.88343 -21.12514 6.39192 5.66871 0.42294 43.42824 86.68868 -39.98443 -42.37602 -1.15167 -1.59944 -0.15459 9.74696 -28.12391 5.90125 -5.82805 -8.54057 11.04711 0.77862 1.24541 -17.05917 -2.29819 3.53982 6.05389
0.17149 0.58567 0.11853 159.75105 0 1.15878 -0.34345 4.8504 -4.33145 -31.35646 10.49244 8.84269 3.33731 -28.14806 -50.85471 102.89492 29.58112 -23.16168 6.26793 8.10295 1.06733 44.33355 83.10759 -37.10639 -44.97333 -1.3788 -1.35138 -1.1231 10.07388 -29.2909 5.80424 -5.70478 -7.98317 10.23234 -0.0119 1.71281 -16.79098 -1.89712 3.61387 6.24039
0.16499 0.58529 0.12297 159.1654 0 1.55341 -0.34072 4.79752 -4.08891 -31.07378 10.52005 9.11793 3.34914 -27.91244 -50.64278 102.42949 29.70972 -24.18226 5.96744 7.90598 0.40158 42.95859 81.12628 -38.09133 -45.14934 -1.19888 -0.61995 -2.14107 10.29527 -31.15799 5.78869 -5.41372 -7.30454 9.6739 -0.8867 2.35926 -16.75013 -1.4366 3.68282 6.18573
0.15884 0.5846 0.12742 158.60668 0 1.98141 -0.47926 4.67727 -4.03243 -30.33996 10.76738 9.40374 2.52477 -27.62802 -49.91055 102.53204 30.77989 -24.7937 5.59158 6.74664 -0.71728 40.66136 79.77834 -40.39036 -44.48667 -0.88315 0.32133 -3.17384 10.47107 -33.31956 5.77624 -5.06659 -6.58333 9.21 -1.79293 3.05691 -16.78677 -0.95249 3.75157 6.05565
0.15261 0.58405 0.13183 158.0424 0 2.39428 -0.56453 4.57558 -3.90283 -29.79137 10.92352 9.68046 2.044 -27.36514 -49.36865 102.39815 31.3875 -25.55646 5.26382 6.00189 -1.61068 38.73874 78.21299 -41.94427 -44.23729 -0.65105 1.19618 -4.18887 10.66304 -35.37958 5.72697 -4.74953 -5.89104 8.71342 -2.68001 3.72362 -16.79448 -0.48138 3.82029 5.96179
0.14604 0.58352 0.1364 157.44396 0 2.81196 -0.60391 4.52157 -3.72234 -29.32865 11.04357 9.97786 1.71876 -27.10107 -49.00942 102.16746 32.15179 -26.46917 4.86996 5.35193 -2.58578 36.97063 76.33383 -44.09097 -43.86729 -0.33002 1.95633 -5.25723 10.87975 -37.31935 5.82642 -4.41249 -5.14415 8.16929 -3.59392 4.42061 -16.7713 0.00376 3.89091 5.86554
0.14027 0.58287 0.14062 156.92596 0 3.2237 -0.77162 4.35511 -3.69173 -28.58627 11.2894 10.23288 0.87991 -26.83421 -48.14716 102.27638 32.83571 -26.96521 4.59436 4.28589 -3.49497 34.67519 75.27064 -45.35868 -43.54173 -0.15599 3.0011 -6.21348 11.0271 -39.56753 5.61888 -4.10488 -4.51294 7.74763 -4.45478 5.06598 -16.83084 0.46248 3.95679 5.75482
0.13651 0.58193 0.14391 156.61611 0 3.63465 -1.26826 3.87474 -4.04646 -27.08904 11.8463 10.37815 -1.29567 -26.51329 -46.06655 103.17185 32.73572 -26.48573 4.7191 2.18664 -4.15494 31.13831 76.23581 -43.49509 -43.57186 -0.47811 4.79493 -6.88029 11.05489 -42.66345 4.5428 -3.88073 -4.12904 7.64882 -5.18854 5.57501 -17.12106 0.85598 4.01192 5.6139
0.13355 0.5809 0.14682 156.38848 0 4.03359 -1.88772 3.28763 -4.5434 -25.33941 12.51923 10.47825 -3.9407 -26.20272 -43.49151 104.39265 32.57383 -25.59085 4.95708 -0.27933 -4.72447 27.108 78.01338 -40.77628 -43.67253 -0.94247 6.86343 -7.42879 11.00373 -46.04267 3.1624 -3.68995 -3.87855 7.66925 -5.86211 6.02735 -17.48879 1.21909 4.06166 5.46165
